<?xml version="1.0" encoding="UTF-8"?>
<svg id="Camada_2" data-name="Camada 2"
     xmlns="http://www.w3.org/2000/svg" viewBox="0 0 521.89 159.74">
  <defs>
    <style>
      .cls-1 {
        fill: #000000;
        stroke-width: 0px;
      }
    </style>
  </defs>
  <g id="Camada_1-2" data-name="Camada 1">
    <path class="cls-1" d="m6.8,119.36c.82,3.57,1.55,5.83,2.19,6.8.35.36.63.53.83.53.47,0,.87-.61,1.2-1.83.47-1.73.71-4.58.71-8.56v-4.51c0-2.75.04-5.38.12-7.87.04-1.43.06-2.62.06-3.59,0-.46-.02-2.19-.06-5.2l.03-5.73-.09-28.65c0-1.53-.01-2.75-.03-3.67-.06-2.04-.09-4-.09-5.88l.03-16.58-.15-14.06-.15-5.04c0-3.77-.01-6.14-.03-7.11-.45-.25-1.84-.66-4.16-1.22h-.74l-.8-.23c-.12-.05-.32-.13-.58-.23l-.15-6.57c2.01,0,3.73.17,5.17.5,1.44.33,3.35.5,5.75.5,2.07,0,4.34-.31,6.8-.92.51-.15.91-.23,1.2-.23.35,0,.86.1,1.54.31.04,1.17.06,2.06.06,2.67,0,.66-.03,1.68-.09,3.06-1.52.51-2.51.76-2.98.76-1.09.05-1.89.28-2.4.69-.02,1.22-.03,1.96-.03,2.22,0,4.94.03,7.95.08,9.02s.08,4.02.08,8.86v6.34l.12,9.86-.06,7.72.09,7.79-.03,8.02.06,5.88c0,11.31-.2,20.08-.58,26.32-.39,6.24-1.01,11.35-1.85,15.32-1.19,5.65-2.27,9.63-3.23,11.92-1.6,3.72-3.17,6.3-4.71,7.76-1.54,1.45-3.07,2.18-4.59,2.18-1.44,0-2.68-1.25-3.74-3.74-1.06-2.5-1.59-5.4-1.59-8.71,0-2.7.38-4.94,1.12-6.72.75-1.78,1.64-2.67,2.66-2.67s1.99,1.5,3.01,4.51Z"/>
    <path class="cls-1" d="m23.46,37.6c.23-.2.41-.36.55-.46h9.17l.68.15.06,5.11-.09,7.48.03,3.89-.03,11.52v7.86c0,5.14.11,9.18.34,12.13.31,2.24.8,3.93,1.49,5.07.69,1.14,1.52,1.72,2.51,1.72.92,0,1.67-.23,2.25-.69.58-.46,1.24-1.32,1.99-2.6.75-1.27,1.23-2.19,1.43-2.75.59-1.63,1-3.13,1.23-4.5l.22-19c.04-1.98.06-3.61.06-4.88s-.02-2.99-.05-5c-.03-2.01-.05-3.14-.05-3.39l.03-2.82-.06-1.68c-.49-.76-1.18-1.25-2.06-1.45l-2.06-.38c-.12-.15-.24-.33-.34-.53-.08-1.02-.12-1.78-.12-2.29,0-.61.03-1.48.09-2.6.68-.25,1.26-.38,1.76-.38l4.75.15c1.27,0,2.84-.05,4.69-.15l.06,5.72-.12,7.32.06,9.16-.03,13.12-.06,5.88.03,3.97c-.08,2.65-.12,4.14-.12,4.5,0,1.27.09,2.21.28,2.82.18.61.36.92.52.92l2.83-.23.37.15c.06,1.78.09,2.8.09,3.06,0,.36-.03.92-.09,1.68-1.09.1-1.87.28-2.34.53-2.2,1.22-4.6,3.03-7.2,5.43l-1.23-.15-.03-12.46c-.25.51-.61,1.3-1.08,2.37-1.8,3.97-3.35,6.66-4.65,8.06-1.29,1.4-2.65,2.1-4.06,2.1-1.68,0-3.14-.87-4.37-2.59-1.23-1.73-2.13-3.87-2.71-6.41-.43-1.99-.72-4.83-.86-8.55-.04-.97-.06-5.95-.06-14.96l.03-2.44c.1-4.98.15-8.67.15-11.06,0-4.07-.03-6.79-.09-8.17-.02-.66-.12-1.42-.31-2.29-.29-.31-.63-.53-1.02-.69-1.31-.56-2.13-1.1-2.46-1.6-.1-.15-.15-.48-.15-.99,0-.31.02-.71.05-1.22.03-.51.07-1.35.11-2.52Z"/>
    <path class="cls-1" d="m56.09,78.02c.62-.31,1.07-.46,1.35-.46.14,0,.36.03.65.08l.28.76c1.11,4.84,1.84,7.77,2.19,8.79.72,2.09,1.43,3.77,2.12,5.04.47.82,1.21,1.66,2.22,2.52.68.61,1.39.92,2.15.92,1.29,0,2.4-1.03,3.32-3.09.92-2.06,1.39-4.29,1.39-6.69,0-1.63-.18-3.02-.52-4.16-.35-1.15-1.05-2.28-2.09-3.4-.51-.56-1.8-1.48-3.86-2.75-2.06-1.27-3.31-2.11-3.74-2.52-.96-.92-1.82-2.19-2.57-3.82-.75-1.63-1.32-3.46-1.71-5.5-.53-2.9-.8-5.4-.8-7.49,0-3.87.23-7.04.68-9.51.45-2.47,1.09-4.65,1.91-6.53.59-1.43,1.49-2.72,2.69-3.9,1.2-1.17,2.49-1.76,3.86-1.76,1.95,0,3.66.33,5.14.99,1.48.66,2.73,1.66,3.75,2.98.12,1.17.3,3.87.52,8.1.23,4.23.34,6.72.34,7.49,0,.36-.03.74-.09,1.15-.53.41-.98.61-1.32.61-.2,0-.5-.05-.89-.15-.18-.71-.43-1.78-.74-3.21-.98-4.53-2-7.73-3.03-9.59-1.04-1.86-2.23-2.79-3.58-2.79s-2.61,1.02-3.57,3.06c-.7,1.48-1.05,3.49-1.05,6.04,0,1.68.36,3.39,1.09,5.12.71,1.78,1.96,3.13,3.74,4.05,2.69,1.48,4.68,2.96,5.95,4.43,1.85,2.14,3.15,4.66,3.9,7.56.75,2.9,1.13,6.27,1.13,10.09,0,5.91-.9,10.84-2.69,14.79-1.8,3.95-4.42,5.92-7.86,5.92-.45,0-1.63-.26-3.54-.76-.86-.26-1.88-.76-3.05-1.53-.29-.2-1.04-.94-2.25-2.22-.23-.31-.38-.68-.48-1.11-.09-.43-.23-2.56-.42-6.38-.33-6.21-.5-9.93-.52-11.16Z"/>
    <path class="cls-1" d="m77.83,41.46c2.42-2.54,4.17-5.03,5.25-7.48,1.08-2.44,2.23-6.41,3.46-11.9h1.72c.18,1.33.28,2.73.28,4.2,0,2.65,0,4.71-.03,6.19l-.09,4.51c0,.26,0,.84.03,1.76l.71.08c.1,0,1.07-.1,2.89-.31.14,0,.91-.05,2.31-.15.12,1.36.18,2.57.18,3.63,0,1.16-.07,2.52-.22,4.09-.68.31-1.19.46-1.54.46-.16,0-.49-.1-.99-.31h-1.6l-.55-.08-1.48.23-.06,29.19c-.02,5.65.03,9.18.14,10.58.11,1.4.35,2.74.72,4.01.47.56.99.84,1.57.84s.96-.13,1.23-.38.72-.99,1.35-2.21c.12-.25.32-.61.58-1.07.49.97.89,1.93,1.2,2.9l.12.92c-.72,2.8-1.73,5-3.03,6.61-1.3,1.6-2.69,2.41-4.17,2.41-1.91,0-3.46-1.5-4.65-4.5-1.19-3-1.79-7.66-1.79-13.96l.12-13.43v-21.75l-.95-.15-2.22.15-.4-.38c-.12-.45-.18-.88-.18-1.29,0-.3.02-1.44.06-3.4Z"/>
    <path class="cls-1" d="m201.22,102.37l.09-5.2c2.56-.81,4.19-2.11,4.89-3.9.45-1.22.8-4.41,1.05-9.55l.4-27.2.46-27.66c.04-1.68.06-2.7.06-3.06,0-7.18-.17-11.33-.51-12.46-.34-1.12-1.66-2.22-3.96-3.29-.57-.31-1.03-.56-1.35-.76-.04-1.27-.06-2.34-.06-3.21v-2.37c.76-.15,1.65-.23,2.67-.23l9,.76c.2.05.49.1.86.15l1.41.15c.35,1.04.7,2.39,1.07,4.06.75,3.73,1.75,9.18,3,16.37l.35,2.05,4.78,25.93c.11.6.28,1.49.5,2.66.34,1.8.67,3.53.99,5.2.32,1.67.66,3.49,1.04,5.46s.71,3.74,1.01,5.3c.29-1.22.56-2.57.83-4.05.82-4.69,1.62-8.99,2.4-12.91,1.35-6.93,3.19-17.52,5.51-31.79.37-2.29.98-5.74,1.83-10.35.85-4.61,1.32-7.04,1.4-7.3.18-.41.55-.61,1.11-.61.2,0,.52-.03.95-.08,1.07-.15,2.35-.28,3.84-.38,2.15-.05,3.88-.22,5.18-.5,1.3-.28,2.03-.42,2.2-.42.2,0,.45.05.74.15.02.71.03,1.27.03,1.68l-.06,2.29c0,.46-.01,1.15-.03,2.06-1.93.71-3.5,1.78-4.71,3.21-.84,1.02-1.26,2.29-1.26,3.82v1.15l.53,23.38c.06,2.14.23,12.76.5,31.86.06,4.28.2,9.7.4,16.28.04.82.06,1.45.06,1.91.02,1.22.13,2.01.32,2.37.19.36,2.04,1.83,5.52,4.43.02.82.03,1.43.03,1.83,0,1.07-.01,2.14-.03,3.21-.55,0-1.95-.29-4.18-.88-2.24-.58-4.33-.88-6.28-.88-2.97,0-5.87.31-8.68.92-.37.1-.73.18-1.08.23l.06-5.27c.84-.81,1.96-1.5,3.36-2.06.99-.41,1.61-1.09,1.88-2.06.27-.97.4-3.67.4-8.1,0-1.68-.01-3.16-.03-4.43-.1-5.35-.16-12.79-.18-22.31l-.52-26.97c-.06-3.82-.13-6.47-.22-7.95l-7.66,43.71c-.18,1.02-.46,2.5-.83,4.43-.47,2.5-.79,4.2-.95,5.12-1.58,9.43-2.68,16.63-3.29,21.62-.16,1.27-.41,2.93-.74,4.97l-2.36-.08-1.66-11.69c-.49-3.06-1.34-7.69-2.52-13.91-.7-3.62-1.24-6.55-1.63-8.79-.18-.92-.32-1.6-.4-2.06l-.37-1.91c-.02-.31-.05-.56-.09-.76l-4.59-24.53-2.8-14.9-.24,36.14-.21,23.46c0,3.87.29,6.64.88,8.29.58,1.66,1.84,3.07,3.77,4.24l1.48.92v5.58c-1.19-.05-2.47-.27-3.83-.65-1.37-.38-3.18-.57-5.43-.57-.47,0-2.49.23-6.06.69Z"/>
    <path class="cls-1" d="m280.87,46.74c1.31,3.16,2.3,6.79,2.94,10.89.65,4.1.97,7.96.97,11.58,0,6.83-.42,12.33-1.26,16.51-1.27,6.32-2.99,10.98-5.14,13.98-2.16,3.01-4.66,4.51-7.52,4.51-3.2,0-5.92-1.78-8.15-5.35-2.23-3.57-3.82-7.61-4.78-12.15-.95-4.53-1.43-10.16-1.43-16.89,0-3.41.23-6.84.68-10.28s1.07-6.43,1.86-8.98c.79-2.55,1.66-4.69,2.6-6.42,1.38-2.45,2.76-4.19,4.14-5.23,1.39-1.04,3.07-1.57,5.04-1.57,4.29,0,7.64,3.13,10.04,9.4Zm-16.83,26.4c.18,6.33.32,9.97.4,10.94.27,3.42.69,6.35,1.26,8.8.39,1.58,1.04,2.98,1.94,4.21.9,1.22,1.98,1.84,3.23,1.84,1.5,0,2.76-1.19,3.78-3.56,1.03-2.37,1.76-6.08,2.22-11.13.29-3.31.43-8.75.43-16.3,0-9.28-.62-15.85-1.85-19.7s-2.85-5.78-4.86-5.78c-1.58,0-2.89,1.1-3.92,3.29s-1.76,5.43-2.17,9.72c-.27,2.75-.42,8.65-.46,17.67Z"/>
    <path class="cls-1" d="m284.7,98.59c.27-.58.62-1,1.05-1.26,1.05-.56,2.04-1.58,2.99-3.05.18-1.22.28-5.34.28-12.36,0-12.87-.11-21.56-.34-26.09-.04-.81-.2-1.52-.49-2.14-.51-.66-1.21-1.25-2.09-1.76-.41-.25-.66-.81-.74-1.68l-.09-2.83c1.52-.51,2.89-1.8,4.12-3.86s2.15-4.16,2.77-6.3c.33-1.17.62-2.06.86-2.67l2.15-.15c.1,1.17.15,2.14.15,2.9,0,.56-.01,1.25-.03,2.06-.02,1.78-.03,3.26-.03,4.43,0,.56,0,2.67.03,6.34.84-3.57,1.46-5.96,1.85-7.18.18-.56.73-1.81,1.63-3.74.7-1.27,1.49-1.91,2.37-1.91,1.09,0,2.03.92,2.83,2.75.8,1.83,1.2,3.95,1.2,6.34s-.3,4.55-.91,6.46c-.61,1.91-1.41,2.87-2.42,2.87-.88,0-1.81-.92-2.77-2.75-.57-1.12-1.04-1.68-1.38-1.68l-.22.08c-.43.36-.82,1.32-1.17,2.89-.58,2.54-.86,5.18-.86,7.92l.06,2.06c.08,3.76.14,12.57.18,26.43.06,1.27.26,2.54.58,3.81.37.71.74,1.22,1.12,1.52.38.3,1.04.56,1.99.77s1.52.53,1.72.97c.21.44.31,1.15.31,2.13,0,.57-.06,1.32-.18,2.25h-2.89l-5.88-.69c-1.48,0-2.82.15-4.03.46h-.52c-.14,0-1.21.13-3.2.38-.06-.84-.09-1.47-.09-1.89s.03-1.02.09-1.81Z"/>
    <path class="cls-1" d="m304.9,61.9c.53-4.34,1-7.22,1.42-8.65,1.15-4.18,2.37-7.45,3.68-9.79,1.3-2.35,2.48-3.9,3.52-4.67,1.35-.97,2.45-1.45,3.29-1.45,1.93,0,3.49.37,4.68,1.11,1.19.74,2.19,1.8,2.99,3.17,1.15,1.98,2.07,3.99,2.77,6.03.7,2.04,1.27,4.43,1.71,7.18.44,2.75.68,6.08.72,10l-3.42-.15c-.94,0-3.02-.22-6.22-.67-1.19-.25-2.01-.38-2.46-.38-.14,0-1.25.05-3.32.15h-2.65c-.04.72-.06,1.33-.06,1.84,0,2.71.13,5.56.4,8.54.27,2.99.67,5.62,1.2,7.89.53,2.27,1.2,4.23,1.99,5.86.79,1.63,1.61,2.81,2.45,3.52l1.79,1.46c1.58,0,2.64-.13,3.17-.38.98-.51,1.85-1.16,2.6-1.95.75-.79,1.66-2.13,2.72-4.01.74,1.33,1.35,2.52,1.85,3.59-1.81,4.94-3.68,8.52-5.62,10.74-1.94,2.22-4.11,3.32-6.51,3.32-1.62,0-2.94-.36-3.97-1.07-1.38-.92-2.62-2.32-3.72-4.21-1.11-1.89-2.06-4.23-2.86-7.04-.8-2.8-1.39-5.69-1.78-8.64-.51-3.88-.77-6.99-.77-9.33,0-4.44.14-8.44.43-12.01Zm17.88-3.24c-.02-2.87-.25-5.6-.68-8.21-.43-2.61-1.1-4.64-2-6.1-.9-1.46-1.82-2.19-2.74-2.19-1.37,0-2.62,1.5-3.72,4.51-1.11,3.01-1.73,7.08-1.88,12.23l7.02.15c.45,0,1.09-.08,1.91-.23.6-.14,1.02-.21,1.26-.21.18,0,.46.02.83.06Z"/>
    <path class="cls-1" d="m97.68,68.56c0-6.32.49-12.66,1.48-19.03.72-4.58,1.72-8.79,3.01-12.61,1.29-3.82,2.91-7.22,4.86-10.2,1.95-2.98,3.94-5.12,5.97-6.42,2.03-1.3,4.3-1.95,6.8-1.95,4.26,0,7.96,1.99,11.1,5.96s5.61,9.35,7.41,16.12c2.34,8.81,3.51,18.06,3.51,27.74,0,14.42-1.97,26.77-5.92,37.06-3.95,10.29-9.44,15.44-16.47,15.44-1.74,0-3.37-.28-4.89-.84-1.15-.41-2.15-.97-3.01-1.68-1.56-1.27-2.43-2.01-2.61-2.22-2.24-3.16-4.03-6.39-5.38-9.7-1.35-3.31-2.5-7.05-3.44-11.23-.51-2.34-1.1-6.57-1.75-12.68-.43-3.92-.64-8.51-.64-13.75Zm20.94-42.64c-1.78,0-3.36,1.03-4.73,3.1-1.37,2.06-2.41,4.34-3.1,6.84-1.17,4.23-2,8.85-2.49,13.87-.49,5.02-.74,11.12-.74,18.3,0,4.38.07,7.51.22,9.4.04.61.1,1.66.18,3.13.18,3.77.4,6.52.64,8.25.88,6.47,1.51,10.47,1.88,12,.61,2.6,1.53,5.17,2.74,7.72.61,1.33,1.51,2.53,2.67,3.63,1.17,1.09,2.34,1.64,3.5,1.64,2.21,0,4.27-1.29,6.16-3.86,1.9-2.57,3.42-6.94,4.56-13.1,1.15-6.16,1.72-14.19,1.72-24.07,0-4.07-.11-9.6-.34-16.58l-.15-1.45c-.06-.41-.16-1.45-.31-3.13-.76-8.35-2.21-14.72-4.35-19.1-2.14-4.38-4.83-6.57-8.07-6.57Z"/>
    <path class="cls-1" d="m142.53,115.46c.53-.61,1.03-1.02,1.48-1.22,1.13-.46,1.79-.84,1.97-1.15.31-.46.51-1.02.62-1.68.12-1.02.18-3.26.18-6.73v-6.66l.03-5.43-.09-8.03v-4.82c0-3.21-.1-5.84-.31-7.88-.08-.77-.34-1.53-.77-2.3-.57-1.02-1.55-2.01-2.92-2.98l-.03-3.67c.27-.2.51-.34.72-.42.22-.08,1.04-.57,2.48-1.49,1.13-1.02,1.86-1.73,2.18-2.14.1-.15.27-.38.49-.69.25-.51.52-1.02.83-1.53.62-1.07,1.35-2.93,2.22-5.58l1.66-.31-.06,8.64c-.04.87-.06,1.55-.06,2.06,0,.41.02,1.58.06,3.51,1.7-3.67,3.25-6.22,4.64-7.64,1.82-1.89,3.55-2.83,5.19-2.83,1.93,0,3.62,1.19,5.07,3.56,1.45,2.37,2.41,5.12,2.86,8.23.45,3.11.68,9.39.68,18.83l-.12,24.96c0,1.17.08,2.14.25,2.91.2.35.77.71,1.69,1.08l1.51.72c.18.65.28,1.45.28,2.41,0,.6-.01,1.43-.03,2.48l-6.03-1.07-1.79.15h-1.42l-4.06.69h-1.05c-.02-.64-.03-1.13-.03-1.48,0-.89.02-1.85.06-2.88.29-.15,1-.41,2.15-.77.31-.1.65-.28,1.02-.53.41-.41.65-.82.71-1.23.16-.87.25-2.52.25-4.97,0-4.28-.01-7.58-.03-9.87l.03-8.88c0-10.76-.28-17.47-.83-20.12-.78-3.82-1.94-5.74-3.5-5.74-1.15,0-2.33.73-3.56,2.18-1.23,1.45-2.5,3.66-3.81,6.62l-.06,1.3.06,4.82-.06,5.12.12,12.23-.06,1.91c0,8.31.13,12.99.4,14.06.27,1.07,1.29,2.26,3.07,3.57.06.87.09,1.5.09,1.91,0,.61-.07,1.55-.22,2.83-.64.05-1.17.08-1.6.08s-1.11-.17-2.04-.52l-3.3-.17c-1.64,0-4.02.18-7.12.53-.08-.5-.12-1.03-.12-1.58,0-.4,0-1.2.03-2.41Z"/>
    <path class="cls-1" d="m175.19,78.75c.53-4.34,1-7.22,1.42-8.65,1.15-4.18,2.37-7.45,3.68-9.79s2.48-3.9,3.52-4.67c1.35-.97,2.45-1.45,3.29-1.45,1.93,0,3.49.37,4.68,1.11,1.19.74,2.19,1.79,2.99,3.17,1.15,1.99,2.07,4,2.77,6.03.7,2.04,1.27,4.43,1.71,7.18.44,2.75.68,6.08.72,10l-3.42-.15c-.94,0-3.02-.22-6.22-.67-1.19-.25-2.01-.38-2.46-.38-.14,0-1.25.05-3.32.15h-2.65c-.04.72-.06,1.33-.06,1.84,0,2.71.13,5.56.4,8.54.27,2.99.67,5.62,1.2,7.89.53,2.27,1.2,4.23,1.99,5.86.79,1.63,1.61,2.81,2.45,3.52l1.79,1.46c1.58,0,2.64-.13,3.17-.38.98-.51,1.85-1.16,2.6-1.95.75-.79,1.66-2.13,2.72-4.01.74,1.33,1.35,2.52,1.85,3.59-1.81,4.94-3.68,8.52-5.62,10.74-1.94,2.22-4.11,3.32-6.51,3.32-1.62,0-2.94-.36-3.97-1.07-1.38-.92-2.62-2.32-3.72-4.21-1.11-1.89-2.06-4.23-2.86-7.04s-1.39-5.69-1.78-8.64c-.51-3.88-.77-6.99-.77-9.33,0-4.44.14-8.44.43-12.01Zm17.88-3.24c-.02-2.87-.25-5.6-.68-8.22-.43-2.61-1.1-4.64-2-6.1-.9-1.46-1.82-2.19-2.74-2.19-1.37,0-2.62,1.5-3.72,4.51-1.11,3.01-1.73,7.08-1.88,12.23l7.02.15c.45,0,1.09-.08,1.91-.23.6-.14,1.02-.21,1.26-.21.18,0,.46.02.83.06Z"/>
    <path class="cls-1" d="m367.5,23.42c.27,1.53.81,5.88,1.63,13.07.37,3.26.56,6.72.58,10.39h-2.8c-1.97-6.93-4-11.91-6.09-14.94-2.09-3.03-4.43-4.55-7.02-4.55-3.18,0-5.74,3.08-7.69,9.25-2.65,8.36-3.97,20-3.97,34.92,0,8.66.23,14.82.68,18.49.74,5.96,1.67,10.83,2.8,14.59.86,2.85,1.99,5.12,3.39,6.8,1.8,2.29,3.73,3.44,5.79,3.44,2.26,0,4.44-1.74,6.54-5.22,2.1-3.48,4.12-8.67,6.05-15.57.76-.35,1.75-.56,2.99-.61-.08,1.93-.22,3.93-.4,6.02-.06.81-.3,4.04-.71,9.67l-.28,2.28-.43,3.58c-1.25,2.4-3.01,4.19-5.28,5.39-2.27,1.2-5.05,1.8-8.36,1.8-2.52,0-4.91-.59-7.16-1.76s-4.17-3.03-5.77-5.58c-2.34-3.67-4.17-7.64-5.51-11.92s-2.32-8.94-2.97-13.98c-.65-5.04-.97-10.7-.97-16.96,0-15.18,2.02-27.71,6.05-37.6,4.03-9.88,9.18-14.82,15.43-14.82,2.54,0,4.94.32,7.19.96,2.25.64,4.34,1.59,6.29,2.86Z"/>
    <path class="cls-1" d="m370,115.95c.33-.2,1.24-.51,2.74-.92.66-.2,1.07-.56,1.23-1.07.21-.76.31-2.57.31-5.43v-5.43l.09-5.73v-6.27l.03-1.53-.03-3.82.06-1.3.12-27.74v-2.14c0-9.48-.1-15.33-.31-17.57-.12-1.32-.42-2.37-.88-3.13-.46-.76-1.54-1.48-3.25-2.14v-1.6c0-.76.02-1.71.06-2.83l2.59-1.38c.51-.36,1.01-.66,1.48-.92,1.15-.61,2.6-1.88,4.35-3.82.31-.46.6-.84.86-1.15l1.67.31-.06,45.69c1.86-3.67,3.56-6.27,5.1-7.79,1.54-1.53,3.13-2.29,4.79-2.29s2.94.7,4.1,2.1c1.16,1.4,2.05,3.13,2.69,5.2.63,2.06,1.09,4.57,1.35,7.53.18,1.99.28,5.81.28,11.46v4.89l.03,10.77-.15,15.59c.08.46.18.76.28.92.25.26.85.61,1.82,1.07.55.26.98.48,1.29.69.16.76.25,1.37.25,1.82l-.03.61c-.04.56-.06,1.39-.06,2.5l-.71.11c-.31,0-.91-.1-1.82-.31-1.72-.41-3.17-.61-4.34-.61-.76,0-1.77.1-3.05.31-.9.1-2.05.15-3.45.15-.23,0-.43-.08-.62-.23v-1.83l-.06-.99c0-.41.05-.97.15-1.68.47-.56,1.02-.93,1.65-1.11.63-.18,1.22-.37,1.77-.57.08-.97.13-1.58.15-1.83l.15-11.16v-18.72c0-5.55-.12-9.31-.37-11.27-.25-1.96-.76-3.57-1.54-4.81-.78-1.25-1.72-1.87-2.83-1.87-1.29,0-2.55.75-3.77,2.25-1.22,1.5-2.26,3.27-3.12,5.31v13.37c0,7.34-.03,12.84-.07,16.51-.03,2.19-.05,3.57-.05,4.13,0,3.51.09,5.94.28,7.26.08.61.31,1.17.68,1.68.76.15,1.39.24,1.89.27.5.03.91.14,1.22.34.04,1.26.06,2.14.06,2.64,0,.7-.04,1.56-.12,2.56l-3.42-.34c-1.3-.23-2.46-.34-3.49-.34l-4.32.53-3.02-.08c-.21-.71-.42-1.99-.65-3.82v-.99Z"/>
    <path class="cls-1" d="m428.57,106.4l.71,1.15c.18.36.3.79.34,1.3l.03.38c-.49,4.53-1.14,7.65-1.94,9.36-.8,1.71-1.8,2.56-2.98,2.56s-2.25-.83-3.12-2.48c-.87-1.66-1.67-4.57-2.38-8.75-.88,3.87-2.12,6.79-3.72,8.75-1.6,1.96-3.56,2.94-5.88,2.94-2.13,0-3.7-1.11-4.71-3.32-1.01-2.21-1.51-5.13-1.51-8.75,0-1.68.15-3.39.45-5.12.3-1.73.78-3.45,1.45-5.16.67-1.71,1.74-3.58,3.22-5.62.23-.31,1.01-1.17,2.34-2.6l7.66-7.64c.06-1.94.09-3.9.09-5.88,0-6.88-.34-11.56-1.02-14.06-.41-1.53-1.13-2.29-2.15-2.29s-1.97.48-2.83,1.45c-.86.97-1.49,2.22-1.88,3.74-.29,1.12-.53,3.24-.74,6.34-.14,2.24-.28,3.54-.4,3.9-.31.97-.87,1.85-1.68,2.64-.81.79-1.36,1.36-1.65,1.72-1.11,1.33-1.99,1.99-2.65,1.99-.29-.61-.43-1.48-.43-2.6,0-2.9.25-5.4.74-7.49.74-2.95,1.85-5.82,3.34-8.6,1.49-2.78,2.88-4.73,4.17-5.85,1.76-1.43,3.92-2.14,6.46-2.14,1.64,0,3.05.75,4.23,2.25,1.18,1.5,2,3.73,2.46,6.69.46,2.96.69,8.28.69,15.97l-.06,12.61.06,9.25v2.37c0,2.14.12,3.6.35,4.39.23.79.53,1.18.89,1.18.22,0,.41-.15.57-.46l.92-3.59.55-.53Zm-10.09-17.73c-1.17.97-2.49,2.59-3.95,4.85-1.47,2.27-2.49,4.55-3.06,6.84-.41,1.68-.62,3.74-.62,6.19,0,2.19.27,4,.8,5.43.53,1.43,1.15,2.14,1.85,2.14,1.15,0,2.12-.81,2.92-2.45,1.09-2.19,1.72-3.94,1.91-5.23.18-1.3.28-4.98.28-11.04,0-2.24-.04-4.48-.12-6.72Z"/>
    <path class="cls-1" d="m426.67,159.58v-3.44c.37-.56.63-.94.8-1.14l2.37-2.14c.99-.97,1.54-1.73,1.66-2.29.33-1.53.47-4.22.43-8.09l-.22-30.39-.31-37.79c-.06-2.75-.3-4.71-.71-5.88-.41-1.17-1.5-2.39-3.26-3.67l-.03-3.97c2.01-.97,3.7-2.16,5.08-3.59,1-1.02,2.37-2.95,4.09-5.81l1.57-.15.03,2.14-.03,8.25c0,.31,0,1.07.03,2.29,1.79-2.7,3.25-4.48,4.4-5.35,1.68-1.22,3.54-1.83,5.57-1.83s3.95,1.33,5.57,3.97c.12.2.3.48.52.84,1.03,1.83,1.77,3.59,2.25,5.27,1.03,3.62,1.76,7.18,2.22,10.7.35,2.65.52,5.96.52,9.93,0,5.3-.28,9.78-.83,13.45-.55,3.67-1.51,7.36-2.86,11.08-1.35,3.72-2.81,6.37-4.35,7.95s-3.18,2.37-4.88,2.37-2.88-.26-3.6-.76c-1.37-.97-2.74-2.39-4.09-4.28-.06.82-.09,1.38-.09,1.68l.09,2.06c.02.56.03,1.25.03,2.06,0,.36-.02,2.37-.06,6.04l.12,13.91c0,.31-.02,1.32-.06,3.06v.84c0,1.88.05,3.26.16,4.13.09.51.27,1.07.55,1.68.2.2.4.43.58.69.63.31,1.19.61,1.68.92s.99.56,1.52.76c.18.56.28,1.3.28,2.22,0,.56-.01,1.38-.03,2.45h-.56c-1.19,0-2.02-.05-2.5-.15l-4.66-.99h-1.14l-1.08-.08-1.08.23-1.66.23c-.62.05-1.3.18-2.04.38-.74.2-1.27.31-1.6.31l-.4-.08Zm11.64-54.64c.08.61.13,1.07.15,1.38.23,2.34.51,4,.86,4.97.64,1.83,1.37,3.06,2.19,3.67,1.23.87,2.31,1.3,3.24,1.3,1.07,0,2.11-.56,3.13-1.68,1.02-1.12,1.84-2.62,2.45-4.51.08-.25.21-.61.37-1.07.14-.81.26-1.43.34-1.83.82-3.97,1.23-8.2,1.23-12.68,0-8.25-.99-15.21-2.96-20.86-1.38-4.02-3.33-6.04-5.86-6.04-1.5,0-3.21.97-5.12,2.9-.04,1.99-.06,7.56-.06,16.73l.06,14.75c0,.36,0,1.35-.02,2.98Z"/>
    <path class="cls-1" d="m459.86,62.82c2.42-2.54,4.17-5.03,5.25-7.48,1.08-2.44,2.23-6.41,3.46-11.9h1.72c.18,1.33.28,2.73.28,4.2,0,2.65,0,4.71-.03,6.19l-.09,4.51c0,.26,0,.84.03,1.76l.71.08c.1,0,1.07-.1,2.89-.31.14,0,.91-.05,2.31-.15.12,1.36.18,2.57.18,3.63,0,1.16-.07,2.52-.22,4.09-.68.31-1.19.46-1.54.46-.16,0-.49-.1-.99-.31h-1.6l-.55-.08-1.48.23-.06,29.19c-.02,5.65.03,9.18.14,10.58.11,1.4.35,2.74.72,4.01.47.56.99.84,1.57.84s.96-.13,1.23-.38.72-.99,1.35-2.21c.12-.25.32-.61.58-1.07.49.97.89,1.93,1.2,2.9l.12.92c-.72,2.8-1.73,5-3.03,6.61-1.3,1.6-2.69,2.41-4.17,2.41-1.91,0-3.46-1.5-4.65-4.5-1.19-3-1.79-7.66-1.79-13.96l.12-13.43v-21.75l-.95-.15-2.22.15-.4-.38c-.12-.45-.18-.88-.18-1.29,0-.3.02-1.44.06-3.4Z"/>
    <path class="cls-1" d="m476.86,80.22c.53-4.34,1-7.22,1.42-8.65,1.15-4.18,2.37-7.45,3.68-9.79s2.48-3.9,3.52-4.67c1.35-.97,2.45-1.45,3.29-1.45,1.93,0,3.49.37,4.68,1.11,1.19.74,2.19,1.79,2.99,3.17,1.15,1.99,2.07,4,2.77,6.03.7,2.04,1.27,4.43,1.71,7.18.44,2.75.68,6.08.72,10l-3.42-.15c-.94,0-3.02-.22-6.22-.67-1.19-.25-2.01-.38-2.46-.38-.14,0-1.25.05-3.32.15h-2.65c-.04.72-.06,1.33-.06,1.84,0,2.71.13,5.56.4,8.54.27,2.99.67,5.62,1.2,7.89.53,2.27,1.2,4.23,1.99,5.86.79,1.63,1.61,2.81,2.45,3.52l1.79,1.46c1.58,0,2.64-.13,3.17-.38.98-.51,1.85-1.16,2.6-1.95.75-.79,1.66-2.13,2.72-4.01.74,1.33,1.35,2.52,1.85,3.59-1.81,4.94-3.68,8.52-5.62,10.74-1.94,2.22-4.11,3.32-6.51,3.32-1.62,0-2.94-.36-3.97-1.07-1.38-.92-2.62-2.32-3.72-4.21-1.11-1.89-2.06-4.23-2.86-7.04s-1.39-5.69-1.78-8.64c-.51-3.88-.77-6.99-.77-9.33,0-4.44.14-8.44.43-12.01Zm17.88-3.24c-.02-2.87-.25-5.6-.68-8.22-.43-2.61-1.1-4.64-2-6.1-.9-1.46-1.82-2.19-2.74-2.19-1.37,0-2.62,1.5-3.72,4.51-1.11,3.01-1.73,7.08-1.88,12.23l7.02.15c.45,0,1.09-.08,1.91-.23.6-.14,1.02-.21,1.26-.21.18,0,.46.02.83.06Z"/>
    <path class="cls-1" d="m501.42,116.91c.27-.58.62-1,1.05-1.26,1.05-.56,2.04-1.58,2.99-3.05.18-1.22.28-5.34.28-12.36,0-12.87-.11-21.56-.34-26.09-.04-.81-.2-1.53-.49-2.14-.51-.66-1.21-1.25-2.09-1.75-.41-.25-.66-.81-.74-1.68l-.09-2.83c1.52-.51,2.89-1.8,4.12-3.86,1.23-2.06,2.15-4.16,2.77-6.3.33-1.17.62-2.06.86-2.67l2.15-.15c.1,1.17.15,2.14.15,2.9,0,.56-.01,1.25-.03,2.06-.02,1.78-.03,3.26-.03,4.43,0,.56,0,2.67.03,6.34.84-3.57,1.46-5.96,1.85-7.18.18-.56.73-1.81,1.63-3.74.7-1.27,1.49-1.91,2.37-1.91,1.09,0,2.03.92,2.83,2.75.8,1.83,1.2,3.95,1.2,6.34s-.3,4.55-.91,6.46c-.61,1.91-1.41,2.87-2.42,2.87-.88,0-1.81-.92-2.77-2.75-.57-1.12-1.04-1.68-1.38-1.68l-.22.08c-.43.36-.82,1.32-1.17,2.89-.58,2.54-.86,5.18-.86,7.92l.06,2.06c.08,3.76.14,12.57.18,26.43.06,1.27.26,2.54.58,3.81.37.71.74,1.22,1.12,1.52s1.04.56,1.99.77c.94.21,1.52.53,1.72.97.21.44.31,1.15.31,2.13,0,.57-.06,1.32-.18,2.25h-2.89l-5.88-.69c-1.48,0-2.82.15-4.03.46h-.52c-.14,0-1.21.13-3.2.38-.06-.84-.09-1.47-.09-1.89s.03-1.02.09-1.81Z"/>
  </g>
</svg>